<?xml version="1.0" encoding="UTF-8" standalone="no"?>
<!DOCTYPE svg PUBLIC "-//W3C//DTD SVG 1.1//EN"
 "http://www.w3.org/Graphics/SVG/1.1/DTD/svg11.dtd">
<!-- Generated by graphviz version 14.1.1 (20251213.1925)
 -->
<!-- Title: InheritanceTree Pages: 1 -->
<svg width="473pt" height="933pt"
 viewBox="0.00 0.00 473.00 933.00" xmlns="http://www.w3.org/2000/svg" xmlns:xlink="http://www.w3.org/1999/xlink">
<g id="graph0" class="graph" transform="scale(1 1) rotate(0) translate(4 928.5)">
<title>InheritanceTree</title>
<polygon fill="white" stroke="none" points="-4,4 -4,-928.5 468.75,-928.5 468.75,4 -4,4"/>
<text xml:space="preserve" text-anchor="middle" x="232.38" y="-7.2" font-family="Times New Roman,serif" font-size="14.00">simple_factory &#45; Inheritance Hierarchy</text>
<!-- SIMPLE_CACHED_VALUE -->
<g id="node1" class="node">
<title>SIMPLE_CACHED_VALUE</title>
<path fill="none" stroke="black" d="M181,-60.5C181,-60.5 27,-60.5 27,-60.5 21,-60.5 15,-54.5 15,-48.5 15,-48.5 15,-36.5 15,-36.5 15,-30.5 21,-24.5 27,-24.5 27,-24.5 181,-24.5 181,-24.5 187,-24.5 193,-30.5 193,-36.5 193,-36.5 193,-48.5 193,-48.5 193,-54.5 187,-60.5 181,-60.5"/>
<text xml:space="preserve" text-anchor="middle" x="104" y="-37.45" font-family="Times New Roman,serif" font-size="14.00">SIMPLE_CACHED_VALUE</text>
</g>
<!-- SIMPLE_CREATABLE -->
<g id="node2" class="node">
<title>SIMPLE_CREATABLE</title>
<path fill="none" stroke="black" d="M452.75,-132.5C452.75,-132.5 328,-132.5 328,-132.5 322,-132.5 316,-126.5 316,-120.5 316,-120.5 316,-108.5 316,-108.5 316,-102.5 322,-96.5 328,-96.5 328,-96.5 452.75,-96.5 452.75,-96.5 458.75,-96.5 464.75,-102.5 464.75,-108.5 464.75,-108.5 464.75,-120.5 464.75,-120.5 464.75,-126.5 458.75,-132.5 452.75,-132.5"/>
<text xml:space="preserve" text-anchor="middle" x="390.38" y="-109.45" font-family="Times New Roman,serif" font-size="14.00">SIMPLE_CREATABLE</text>
</g>
<!-- SIMPLE_FACTORY -->
<g id="node3" class="node">
<title>SIMPLE_FACTORY</title>
<path fill="none" stroke="black" d="M444.88,-204.5C444.88,-204.5 335.88,-204.5 335.88,-204.5 329.88,-204.5 323.88,-198.5 323.88,-192.5 323.88,-192.5 323.88,-180.5 323.88,-180.5 323.88,-174.5 329.88,-168.5 335.88,-168.5 335.88,-168.5 444.88,-168.5 444.88,-168.5 450.88,-168.5 456.88,-174.5 456.88,-180.5 456.88,-180.5 456.88,-192.5 456.88,-192.5 456.88,-198.5 450.88,-204.5 444.88,-204.5"/>
<text xml:space="preserve" text-anchor="middle" x="390.38" y="-181.45" font-family="Times New Roman,serif" font-size="14.00">SIMPLE_FACTORY</text>
</g>
<!-- SIMPLE_OBJECT_POOL -->
<g id="node4" class="node">
<title>SIMPLE_OBJECT_POOL</title>
<path fill="none" stroke="black" d="M173.5,-276.5C173.5,-276.5 34.5,-276.5 34.5,-276.5 28.5,-276.5 22.5,-270.5 22.5,-264.5 22.5,-264.5 22.5,-252.5 22.5,-252.5 22.5,-246.5 28.5,-240.5 34.5,-240.5 34.5,-240.5 173.5,-240.5 173.5,-240.5 179.5,-240.5 185.5,-246.5 185.5,-252.5 185.5,-252.5 185.5,-264.5 185.5,-264.5 185.5,-270.5 179.5,-276.5 173.5,-276.5"/>
<text xml:space="preserve" text-anchor="middle" x="104" y="-253.45" font-family="Times New Roman,serif" font-size="14.00">SIMPLE_OBJECT_POOL</text>
</g>
<!-- SIMPLE_ONCE_CELL -->
<g id="node5" class="node">
<title>SIMPLE_ONCE_CELL</title>
<path fill="none" stroke="black" d="M166.38,-348.5C166.38,-348.5 41.62,-348.5 41.62,-348.5 35.62,-348.5 29.62,-342.5 29.62,-336.5 29.62,-336.5 29.62,-324.5 29.62,-324.5 29.62,-318.5 35.62,-312.5 41.62,-312.5 41.62,-312.5 166.38,-312.5 166.38,-312.5 172.38,-312.5 178.38,-318.5 178.38,-324.5 178.38,-324.5 178.38,-336.5 178.38,-336.5 178.38,-342.5 172.38,-348.5 166.38,-348.5"/>
<text xml:space="preserve" text-anchor="middle" x="104" y="-325.45" font-family="Times New Roman,serif" font-size="14.00">SIMPLE_ONCE_CELL</text>
</g>
<!-- SIMPLE_SHARED_SINGLETON -->
<g id="node6" class="node">
<title>SIMPLE_SHARED_SINGLETON</title>
<path fill="none" stroke="black" d="M196,-420.5C196,-420.5 12,-420.5 12,-420.5 6,-420.5 0,-414.5 0,-408.5 0,-408.5 0,-396.5 0,-396.5 0,-390.5 6,-384.5 12,-384.5 12,-384.5 196,-384.5 196,-384.5 202,-384.5 208,-390.5 208,-396.5 208,-396.5 208,-408.5 208,-408.5 208,-414.5 202,-420.5 196,-420.5"/>
<text xml:space="preserve" text-anchor="middle" x="104" y="-397.45" font-family="Times New Roman,serif" font-size="14.00">SIMPLE_SHARED_SINGLETON</text>
</g>
<!-- SIMPLE_SINGLETON -->
<g id="node7" class="node">
<title>SIMPLE_SINGLETON</title>
<path fill="none" stroke="black" d="M165.62,-492.5C165.62,-492.5 42.38,-492.5 42.38,-492.5 36.38,-492.5 30.38,-486.5 30.38,-480.5 30.38,-480.5 30.38,-468.5 30.38,-468.5 30.38,-462.5 36.38,-456.5 42.38,-456.5 42.38,-456.5 165.62,-456.5 165.62,-456.5 171.62,-456.5 177.62,-462.5 177.62,-468.5 177.62,-468.5 177.62,-480.5 177.62,-480.5 177.62,-486.5 171.62,-492.5 165.62,-492.5"/>
<text xml:space="preserve" text-anchor="middle" x="104" y="-469.45" font-family="Times New Roman,serif" font-size="14.00">SIMPLE_SINGLETON</text>
</g>
<!-- SIMPLE_TYPE_FACTORY -->
<g id="node8" class="node">
<title>SIMPLE_TYPE_FACTORY</title>
<path fill="none" stroke="black" d="M178.75,-204.5C178.75,-204.5 29.25,-204.5 29.25,-204.5 23.25,-204.5 17.25,-198.5 17.25,-192.5 17.25,-192.5 17.25,-180.5 17.25,-180.5 17.25,-174.5 23.25,-168.5 29.25,-168.5 29.25,-168.5 178.75,-168.5 178.75,-168.5 184.75,-168.5 190.75,-174.5 190.75,-180.5 190.75,-180.5 190.75,-192.5 190.75,-192.5 190.75,-198.5 184.75,-204.5 178.75,-204.5"/>
<text xml:space="preserve" text-anchor="middle" x="104" y="-181.45" font-family="Times New Roman,serif" font-size="14.00">SIMPLE_TYPE_FACTORY</text>
</g>
<!-- SIMPLE_TYPE_FACTORY&#45;&gt;SIMPLE_FACTORY -->
<g id="edge1" class="edge">
<title>SIMPLE_TYPE_FACTORY&#45;&gt;SIMPLE_FACTORY</title>
<path fill="none" stroke="black" d="M191.09,-186.5C191.09,-186.5 312.19,-186.5 312.19,-186.5"/>
<polygon fill="none" stroke="black" points="312.19,-190 322.19,-186.5 312.19,-183 312.19,-190"/>
</g>
<!-- TEST_ADVERSARIAL -->
<g id="node9" class="node">
<title>TEST_ADVERSARIAL</title>
<path fill="none" stroke="black" d="M167.12,-564.5C167.12,-564.5 40.88,-564.5 40.88,-564.5 34.88,-564.5 28.88,-558.5 28.88,-552.5 28.88,-552.5 28.88,-540.5 28.88,-540.5 28.88,-534.5 34.88,-528.5 40.88,-528.5 40.88,-528.5 167.12,-528.5 167.12,-528.5 173.12,-528.5 179.12,-534.5 179.12,-540.5 179.12,-540.5 179.12,-552.5 179.12,-552.5 179.12,-558.5 173.12,-564.5 167.12,-564.5"/>
<text xml:space="preserve" text-anchor="middle" x="104" y="-541.45" font-family="Times New Roman,serif" font-size="14.00">TEST_ADVERSARIAL</text>
</g>
<!-- TEST_EDGE_CASES -->
<g id="node10" class="node">
<title>TEST_EDGE_CASES</title>
<path fill="none" stroke="black" d="M161.88,-636.5C161.88,-636.5 46.12,-636.5 46.12,-636.5 40.12,-636.5 34.12,-630.5 34.12,-624.5 34.12,-624.5 34.12,-612.5 34.12,-612.5 34.12,-606.5 40.12,-600.5 46.12,-600.5 46.12,-600.5 161.88,-600.5 161.88,-600.5 167.88,-600.5 173.88,-606.5 173.88,-612.5 173.88,-612.5 173.88,-624.5 173.88,-624.5 173.88,-630.5 167.88,-636.5 161.88,-636.5"/>
<text xml:space="preserve" text-anchor="middle" x="104" y="-613.45" font-family="Times New Roman,serif" font-size="14.00">TEST_EDGE_CASES</text>
</g>
<!-- TEST_EXPLOITS -->
<g id="node11" class="node">
<title>TEST_EXPLOITS</title>
<path fill="none" stroke="black" d="M151.38,-708.5C151.38,-708.5 56.62,-708.5 56.62,-708.5 50.62,-708.5 44.62,-702.5 44.62,-696.5 44.62,-696.5 44.62,-684.5 44.62,-684.5 44.62,-678.5 50.62,-672.5 56.62,-672.5 56.62,-672.5 151.38,-672.5 151.38,-672.5 157.38,-672.5 163.38,-678.5 163.38,-684.5 163.38,-684.5 163.38,-696.5 163.38,-696.5 163.38,-702.5 157.38,-708.5 151.38,-708.5"/>
<text xml:space="preserve" text-anchor="middle" x="104" y="-685.45" font-family="Times New Roman,serif" font-size="14.00">TEST_EXPLOITS</text>
</g>
<!-- TEST_OBJECT -->
<g id="node12" class="node">
<title>TEST_OBJECT</title>
<path fill="none" stroke="black" d="M144.25,-132.5C144.25,-132.5 63.75,-132.5 63.75,-132.5 57.75,-132.5 51.75,-126.5 51.75,-120.5 51.75,-120.5 51.75,-108.5 51.75,-108.5 51.75,-102.5 57.75,-96.5 63.75,-96.5 63.75,-96.5 144.25,-96.5 144.25,-96.5 150.25,-96.5 156.25,-102.5 156.25,-108.5 156.25,-108.5 156.25,-120.5 156.25,-120.5 156.25,-126.5 150.25,-132.5 144.25,-132.5"/>
<text xml:space="preserve" text-anchor="middle" x="104" y="-109.45" font-family="Times New Roman,serif" font-size="14.00">TEST_OBJECT</text>
</g>
<!-- TEST_OBJECT&#45;&gt;SIMPLE_CREATABLE -->
<g id="edge2" class="edge">
<title>TEST_OBJECT&#45;&gt;SIMPLE_CREATABLE</title>
<path fill="none" stroke="black" d="M156.53,-114.5C156.53,-114.5 304.02,-114.5 304.02,-114.5"/>
<polygon fill="none" stroke="black" points="304.02,-118 314.02,-114.5 304.02,-111 304.02,-118"/>
</g>
<!-- TEST_SIMPLE_FACTORY -->
<g id="node13" class="node">
<title>TEST_SIMPLE_FACTORY</title>
<path fill="none" stroke="black" d="M178,-780.5C178,-780.5 30,-780.5 30,-780.5 24,-780.5 18,-774.5 18,-768.5 18,-768.5 18,-756.5 18,-756.5 18,-750.5 24,-744.5 30,-744.5 30,-744.5 178,-744.5 178,-744.5 184,-744.5 190,-750.5 190,-756.5 190,-756.5 190,-768.5 190,-768.5 190,-774.5 184,-780.5 178,-780.5"/>
<text xml:space="preserve" text-anchor="middle" x="104" y="-757.45" font-family="Times New Roman,serif" font-size="14.00">TEST_SIMPLE_FACTORY</text>
</g>
<!-- TEST_STATE_SEQUENCES -->
<g id="node14" class="node">
<title>TEST_STATE_SEQUENCES</title>
<path fill="none" stroke="black" d="M181.75,-852.5C181.75,-852.5 26.25,-852.5 26.25,-852.5 20.25,-852.5 14.25,-846.5 14.25,-840.5 14.25,-840.5 14.25,-828.5 14.25,-828.5 14.25,-822.5 20.25,-816.5 26.25,-816.5 26.25,-816.5 181.75,-816.5 181.75,-816.5 187.75,-816.5 193.75,-822.5 193.75,-828.5 193.75,-828.5 193.75,-840.5 193.75,-840.5 193.75,-846.5 187.75,-852.5 181.75,-852.5"/>
<text xml:space="preserve" text-anchor="middle" x="104" y="-829.45" font-family="Times New Roman,serif" font-size="14.00">TEST_STATE_SEQUENCES</text>
</g>
<!-- TEST_STRESS -->
<g id="node15" class="node">
<title>TEST_STRESS</title>
<path fill="none" stroke="black" d="M143.5,-924.5C143.5,-924.5 64.5,-924.5 64.5,-924.5 58.5,-924.5 52.5,-918.5 52.5,-912.5 52.5,-912.5 52.5,-900.5 52.5,-900.5 52.5,-894.5 58.5,-888.5 64.5,-888.5 64.5,-888.5 143.5,-888.5 143.5,-888.5 149.5,-888.5 155.5,-894.5 155.5,-900.5 155.5,-900.5 155.5,-912.5 155.5,-912.5 155.5,-918.5 149.5,-924.5 143.5,-924.5"/>
<text xml:space="preserve" text-anchor="middle" x="104" y="-901.45" font-family="Times New Roman,serif" font-size="14.00">TEST_STRESS</text>
</g>
</g>
</svg>
