<?xml version="1.0" encoding="UTF-8" standalone="no"?>
<!DOCTYPE svg PUBLIC "-//W3C//DTD SVG 1.1//EN"
 "http://www.w3.org/Graphics/SVG/1.1/DTD/svg11.dtd">
<!-- Generated by graphviz version 14.1.1 (20251213.1925)
 -->
<!-- Title: Dependencies Pages: 1 -->
<svg width="336pt" height="141pt"
 viewBox="0.00 0.00 336.00 141.00" xmlns="http://www.w3.org/2000/svg" xmlns:xlink="http://www.w3.org/1999/xlink">
<g id="graph0" class="graph" transform="scale(1 1) rotate(0) translate(4 136.5)">
<title>Dependencies</title>
<polygon fill="white" stroke="none" points="-4,4 -4,-136.5 331.5,-136.5 331.5,4 -4,4"/>
<text xml:space="preserve" text-anchor="middle" x="163.75" y="-7.2" font-family="Times New Roman,serif" font-size="14.00">simple_factory &#45; Dependencies</text>
<!-- simple_factory -->
<g id="node1" class="node">
<title>simple_factory</title>
<polygon fill="lightblue" stroke="black" points="97.75,-96.5 0,-96.5 0,-60.5 97.75,-60.5 97.75,-96.5"/>
<text xml:space="preserve" text-anchor="middle" x="48.88" y="-73.45" font-family="Times New Roman,serif" font-size="14.00">simple_factory</text>
</g>
<!-- simple_mml -->
<g id="node2" class="node">
<title>simple_mml</title>
<polygon fill="lightblue" stroke="black" points="327.5,-132.5 241.75,-132.5 241.75,-96.5 327.5,-96.5 327.5,-132.5"/>
<text xml:space="preserve" text-anchor="middle" x="284.62" y="-109.45" font-family="Times New Roman,serif" font-size="14.00">simple_mml</text>
</g>
<!-- simple_factory&#45;&gt;simple_mml -->
<g id="edge1" class="edge">
<title>simple_factory&#45;&gt;simple_mml</title>
<path fill="none" stroke="black" stroke-dasharray="5,2" d="M98.21,-84.5C157.61,-84.5 249.5,-84.5 249.5,-84.5 249.5,-84.5 249.5,-85.65 249.5,-85.65"/>
<polygon fill="black" stroke="black" points="246,-84.5 249.5,-94.5 253,-84.5 246,-84.5"/>
</g>
<!-- base -->
<g id="node3" class="node">
<title>base</title>
<polygon fill="lightgray" stroke="black" points="311.62,-60.5 257.62,-60.5 257.62,-24.5 311.62,-24.5 311.62,-60.5"/>
<text xml:space="preserve" text-anchor="middle" x="284.62" y="-37.45" font-family="Times New Roman,serif" font-size="14.00">base</text>
</g>
<!-- simple_factory&#45;&gt;base -->
<g id="edge2" class="edge">
<title>simple_factory&#45;&gt;base</title>
<path fill="none" stroke="black" stroke-dasharray="5,2" d="M97.98,-72.5C167.04,-72.5 284.5,-72.5 284.5,-72.5 284.5,-72.5 284.5,-71.35 284.5,-71.35"/>
<polygon fill="black" stroke="black" points="288,-72.5 284.5,-62.5 281,-72.5 288,-72.5"/>
</g>
</g>
</svg>
